<svg xmlns="http://www.w3.org/2000/svg" width="72" height="74" viewBox="0 0 72 74" fill="none">
<path d="M63 37C63 51.9117 50.9117 64 36 64C21.0883 64 9 51.9117 9 37C9 22.0883 21.0883 10 36 10C50.9117 10 63 22.0883 63 37ZM10.5744 37C10.5744 51.0422 21.9578 62.4256 36 62.4256C50.0422 62.4256 61.4256 51.0422 61.4256 37C61.4256 22.9578 50.0422 11.5744 36 11.5744C21.9578 11.5744 10.5744 22.9578 10.5744 37Z" fill="white" fill-opacity="0.7"/>
<path d="M58.5 37C58.5 49.4264 48.4264 59.5 36 59.5C23.5736 59.5 13.5 49.4264 13.5 37C13.5 24.5736 23.5736 14.5 36 14.5C48.4264 14.5 58.5 24.5736 58.5 37ZM18.0454 37C18.0454 46.9161 26.0839 54.9547 36 54.9547C45.9161 54.9547 53.9547 46.9161 53.9547 37C53.9547 27.0839 45.9161 19.0454 36 19.0454C26.0839 19.0454 18.0454 27.0839 18.0454 37Z" fill="white"/>
<path d="M49.5 37C49.5 44.4558 43.4558 50.5 36 50.5C28.5442 50.5 22.5 44.4558 22.5 37C22.5 29.5442 28.5442 23.5 36 23.5C43.4558 23.5 49.5 29.5442 49.5 37ZM27.0435 37C27.0435 41.9465 31.0535 45.9565 36 45.9565C40.9465 45.9565 44.9565 41.9465 44.9565 37C44.9565 32.0535 40.9465 28.0435 36 28.0435C31.0535 28.0435 27.0435 32.0535 27.0435 37Z" fill="white"/>
<path d="M40.5 37C40.5 39.4853 38.4853 41.5 36 41.5C33.5147 41.5 31.5 39.4853 31.5 37C31.5 34.5147 33.5147 32.5 36 32.5C38.4853 32.5 40.5 34.5147 40.5 37ZM34.3678 37C34.3678 37.9014 35.0986 38.6322 36 38.6322C36.9014 38.6322 37.6322 37.9014 37.6322 37C37.6322 36.0986 36.9014 35.3678 36 35.3678C35.0986 35.3678 34.3678 36.0986 34.3678 37Z" fill="white" fill-opacity="0.7"/>
<path d="M36 1L38.3362 29.81L57.1603 7.87539L42.1162 32.5563L70.238 25.8754L43.56 37L70.238 48.1246L42.1162 41.4437L57.1603 66.1246L38.3362 44.19L36 73L33.6638 44.19L14.8397 66.1246L29.8838 41.4437L1.76197 48.1246L28.44 37L1.76197 25.8754L29.8838 32.5563L14.8397 7.87539L33.6638 29.81L36 1Z" stroke="url(#paint0_radial_2189_15208)" stroke-width="4.5"/>
<defs>
<radialGradient id="paint0_radial_2189_15208" cx="0" cy="0" r="1" gradientUnits="userSpaceOnUse" gradientTransform="translate(36 37) rotate(90) scale(36)">
<stop offset="0.23602" stop-color="white" stop-opacity="0"/>
<stop offset="0.4375" stop-color="white" stop-opacity="0.21"/>
<stop offset="0.651042" stop-color="white" stop-opacity="0.28"/>
<stop offset="0.895833" stop-color="white" stop-opacity="0"/>
</radialGradient>
</defs>
</svg>