<svg width="200" height="200" viewBox="0 0 200 200" fill="none" xmlns="http://www.w3.org/2000/svg">
<g id="Frame 35">
<rect width="200" height="200" fill="black"/>
<g id="Union">
<path fill-rule="evenodd" clip-rule="evenodd" d="M65 35H40V54V74V93H65V144H40V164H160V144H135V93H160V74V54V35H135V54H120V35H80V54H65V35Z" fill="#AFE8C2"/>
<path d="M40 35V32.5C38.6193 32.5 37.5 33.6193 37.5 35H40ZM65 35H67.5C67.5 33.6193 66.3807 32.5 65 32.5V35ZM40 93H37.5C37.5 94.3807 38.6193 95.5 40 95.5V93ZM65 93H67.5C67.5 91.6193 66.3807 90.5 65 90.5V93ZM65 144V146.5C66.3807 146.5 67.5 145.381 67.5 144H65ZM40 144V141.5C38.6193 141.5 37.5 142.619 37.5 144H40ZM40 164H37.5C37.5 165.381 38.6193 166.5 40 166.5V164ZM160 164V166.5C161.381 166.5 162.5 165.381 162.5 164H160ZM160 144H162.5C162.5 142.619 161.381 141.5 160 141.5V144ZM135 144H132.5C132.5 145.381 133.619 146.5 135 146.5V144ZM135 93V90.5C133.619 90.5 132.5 91.6193 132.5 93H135ZM160 93V95.5C161.381 95.5 162.5 94.3807 162.5 93H160ZM160 35H162.5C162.5 33.6193 161.381 32.5 160 32.5V35ZM135 35V32.5C133.619 32.5 132.5 33.6193 132.5 35H135ZM135 54V56.5C136.381 56.5 137.5 55.3807 137.5 54H135ZM120 54H117.5C117.5 55.3807 118.619 56.5 120 56.5V54ZM120 35H122.5C122.5 33.6193 121.381 32.5 120 32.5V35ZM80 35V32.5C78.6193 32.5 77.5 33.6193 77.5 35H80ZM80 54V56.5C81.3807 56.5 82.5 55.3807 82.5 54H80ZM65 54H62.5C62.5 55.3807 63.6193 56.5 65 56.5V54ZM40 37.5H65V32.5H40V37.5ZM42.5 54V35H37.5V54H42.5ZM42.5 74V54H37.5V74H42.5ZM42.5 93V74H37.5V93H42.5ZM65 90.5H40V95.5H65V90.5ZM67.5 144V93H62.5V144H67.5ZM40 146.5H65V141.5H40V146.5ZM42.5 164V144H37.5V164H42.5ZM160 161.5H40V166.5H160V161.5ZM157.5 144V164H162.5V144H157.5ZM135 146.5H160V141.5H135V146.5ZM132.5 93V144H137.5V93H132.5ZM160 90.5H135V95.5H160V90.5ZM157.5 74V93H162.5V74H157.5ZM157.5 54V74H162.5V54H157.5ZM157.5 35V54H162.5V35H157.5ZM135 37.5H160V32.5H135V37.5ZM137.5 54V35H132.5V54H137.5ZM120 56.5H135V51.5H120V56.5ZM117.5 35V54H122.5V35H117.5ZM80 37.5H120V32.5H80V37.5ZM82.5 54V35H77.5V54H82.5ZM65 56.5H80V51.5H65V56.5ZM62.5 35V54H67.5V35H62.5Z" fill="#005E2C"/>
</g>
<rect id="Rectangle 16242" x="43" y="153" width="114" height="8" fill="#3DD771"/>
<path id="Rectangle 16244" d="M107 123C107 117.477 111.477 113 117 113C122.523 113 127 117.477 127 123V144H107V123Z" fill="#005E2C"/>
<rect id="Rectangle 16251" x="43" y="38" width="8" height="50" fill="white"/>
<rect id="Rectangle 16252" x="83" y="38" width="8" height="20" fill="white"/>
<rect id="Rectangle 16253" x="138" y="38" width="8" height="20" fill="white"/>
<g id="Group 77834">
<rect id="Rectangle 16250" x="70" y="134" width="116" height="40" rx="20" fill="#149A53" stroke="#005E2C" stroke-width="5" stroke-linejoin="round"/>
<rect id="Rectangle 16254" x="49" y="134" width="116" height="40" rx="20" fill="#149A53" stroke="#005E2C" stroke-width="5" stroke-linejoin="round"/>
<path id="Vector 5845" d="M162 141L178 141" stroke="#005E2C" stroke-width="3" stroke-linecap="round" stroke-linejoin="round"/>
<path id="Vector 5846" d="M166 151L184 151" stroke="#005E2C" stroke-width="3" stroke-linecap="round" stroke-linejoin="round"/>
<path id="Vector 5847" d="M163 161L182 161" stroke="#005E2C" stroke-width="3" stroke-linecap="round" stroke-linejoin="round"/>
</g>
<g id="Group 77835">
<rect id="Rectangle 16250_2" x="31" y="134" width="116" height="40" rx="20" fill="#149A53" stroke="#005E2C" stroke-width="5" stroke-linejoin="round"/>
<rect id="Rectangle 16254_2" x="10" y="134" width="116" height="40" rx="20" fill="#3DD771" stroke="#005E2C" stroke-width="5" stroke-linejoin="round"/>
<path id="Vector 5845_2" d="M123 141L139 141" stroke="#005E2C" stroke-width="3" stroke-linecap="round" stroke-linejoin="round"/>
<path id="Vector 5846_2" d="M127 151L145 151" stroke="#005E2C" stroke-width="3" stroke-linecap="round" stroke-linejoin="round"/>
<path id="Vector 5847_2" d="M124 161L143 161" stroke="#005E2C" stroke-width="3" stroke-linecap="round" stroke-linejoin="round"/>
</g>
<ellipse id="Ellipse 3560" cx="31" cy="154" rx="9" ry="12" fill="#005E2C"/>
<ellipse id="Ellipse 3561" cx="105" cy="154" rx="9" ry="12" fill="#005E2C"/>
<ellipse id="Ellipse 3562" cx="68" cy="154" rx="9" ry="12" fill="#005E2C"/>
</g>
</svg>
