<svg width="200" height="200" viewBox="0 0 200 200" fill="none" xmlns="http://www.w3.org/2000/svg">
<g id="Frame 37">
<rect width="200" height="200" fill="black"/>
<g id="Union">
<path fill-rule="evenodd" clip-rule="evenodd" d="M65 35H40V54V74V93H65V144H40V164H160V144H135V93H160V74V54V35H135V54H120V35H80V54H65V35Z" fill="#AFE8C2"/>
<path d="M40 35V32.5C38.6193 32.5 37.5 33.6193 37.5 35H40ZM65 35H67.5C67.5 33.6193 66.3807 32.5 65 32.5V35ZM40 93H37.5C37.5 94.3807 38.6193 95.5 40 95.5V93ZM65 93H67.5C67.5 91.6193 66.3807 90.5 65 90.5V93ZM65 144V146.5C66.3807 146.5 67.5 145.381 67.5 144H65ZM40 144V141.5C38.6193 141.5 37.5 142.619 37.5 144H40ZM40 164H37.5C37.5 165.381 38.6193 166.5 40 166.5V164ZM160 164V166.5C161.381 166.5 162.5 165.381 162.5 164H160ZM160 144H162.5C162.5 142.619 161.381 141.5 160 141.5V144ZM135 144H132.5C132.5 145.381 133.619 146.5 135 146.5V144ZM135 93V90.5C133.619 90.5 132.5 91.6193 132.5 93H135ZM160 93V95.5C161.381 95.5 162.5 94.3807 162.5 93H160ZM160 35H162.5C162.5 33.6193 161.381 32.5 160 32.5V35ZM135 35V32.5C133.619 32.5 132.5 33.6193 132.5 35H135ZM135 54V56.5C136.381 56.5 137.5 55.3807 137.5 54H135ZM120 54H117.5C117.5 55.3807 118.619 56.5 120 56.5V54ZM120 35H122.5C122.5 33.6193 121.381 32.5 120 32.5V35ZM80 35V32.5C78.6193 32.5 77.5 33.6193 77.5 35H80ZM80 54V56.5C81.3807 56.5 82.5 55.3807 82.5 54H80ZM65 54H62.5C62.5 55.3807 63.6193 56.5 65 56.5V54ZM40 37.5H65V32.5H40V37.5ZM42.5 54V35H37.5V54H42.5ZM42.5 74V54H37.5V74H42.5ZM42.5 93V74H37.5V93H42.5ZM65 90.5H40V95.5H65V90.5ZM67.5 144V93H62.5V144H67.5ZM40 146.5H65V141.5H40V146.5ZM42.5 164V144H37.5V164H42.5ZM160 161.5H40V166.5H160V161.5ZM157.5 144V164H162.5V144H157.5ZM135 146.5H160V141.5H135V146.5ZM132.5 93V144H137.5V93H132.5ZM160 90.5H135V95.5H160V90.5ZM157.5 74V93H162.5V74H157.5ZM157.5 54V74H162.5V54H157.5ZM157.5 35V54H162.5V35H157.5ZM135 37.5H160V32.5H135V37.5ZM137.5 54V35H132.5V54H137.5ZM120 56.5H135V51.5H120V56.5ZM117.5 35V54H122.5V35H117.5ZM80 37.5H120V32.5H80V37.5ZM82.5 54V35H77.5V54H82.5ZM65 56.5H80V51.5H65V56.5ZM62.5 35V54H67.5V35H62.5Z" fill="#005E2C"/>
</g>
<rect id="Rectangle 16242" x="43" y="153" width="114" height="8" fill="#3DD771"/>
<rect id="Rectangle 16249" x="135" y="134" width="40" height="40" fill="#149A53" stroke="#005E2C" stroke-width="5" stroke-linejoin="round"/>
<rect id="Rectangle 16250" x="25" y="134" width="40" height="40" fill="#149A53" stroke="#005E2C" stroke-width="5" stroke-linejoin="round"/>
<rect id="Rectangle 16251" x="43" y="38" width="8" height="50" fill="white"/>
<rect id="Rectangle 16252" x="83" y="38" width="8" height="20" fill="white"/>
<rect id="Rectangle 16253" x="138" y="38" width="8" height="20" fill="white"/>
<path id="Vector 5845" d="M25 141H65" stroke="#005E2C" stroke-width="3" stroke-linecap="round" stroke-linejoin="round"/>
<path id="Vector 5846" d="M25 151H65" stroke="#005E2C" stroke-width="3" stroke-linecap="round" stroke-linejoin="round"/>
<path id="Vector 5847" d="M25 161H65" stroke="#005E2C" stroke-width="3" stroke-linecap="round" stroke-linejoin="round"/>
<path id="Vector 5848" d="M135 141H175" stroke="#005E2C" stroke-width="3" stroke-linecap="round" stroke-linejoin="round"/>
<path id="Vector 5849" d="M135 151H175" stroke="#005E2C" stroke-width="3" stroke-linecap="round" stroke-linejoin="round"/>
<path id="Vector 5850" d="M135 161H175" stroke="#005E2C" stroke-width="3" stroke-linecap="round" stroke-linejoin="round"/>
</g>
</svg>
