<svg xmlns="http://www.w3.org/2000/svg" width="64" height="64" viewBox="0 0 64 64" fill="none">
<circle cx="32" cy="32" r="22" fill="#2B2B2B" stroke="#FFCF56" stroke-width="2"/>
<path d="M31.7667 50.698C23.1356 50.698 16.1387 43.7045 16.1387 35.0775C16.1387 26.4506 23.1356 19.457 31.7667 19.457C40.3978 19.457 47.3947 26.4506 47.3947 35.0775C47.3947 43.7045 40.3978 50.698 31.7667 50.698Z" fill="#FF9F6C"/>
<path d="M42.3702 48.0075C42.8809 48.7957 43.9386 49.0267 44.6825 48.4539C47.7399 46.1002 50.0899 42.9332 51.453 39.3003C53.0157 35.1354 53.1987 30.5783 51.975 26.3003C50.7513 22.0223 48.1855 18.2495 44.6558 15.5377C41.126 12.8259 36.8187 11.3184 32.3685 11.2373C27.9182 11.1562 23.5602 12.5057 19.9364 15.0871C16.3126 17.6686 13.6146 21.3454 12.2397 25.576C10.8648 29.8067 10.8859 34.3675 12.2996 38.5866C13.5328 42.2669 15.7689 45.5174 18.7407 47.9811C19.4638 48.5806 20.529 48.3883 21.0673 47.6192L30.552 34.0682C31.2439 33.0798 32.7166 33.1067 33.3729 34.1197L42.3702 48.0075Z" fill="#EBBDEC"/>
<rect x="17.8325" y="20.4155" width="28.5993" height="23.4405" rx="6.29306" fill="#0A47C2" stroke="#ED6CEF" stroke-width="1.0205"/>
<path d="M24.6027 33.9657V31.7546H22.3917V30.6491H24.6027V28.438H26.8138V30.6491H29.0249V31.7546H26.8138V33.9657H24.6027Z" fill="#52C8F5"/>
<path d="M22.3917 36.1599V35.0543H29.0249V36.1599H22.3917Z" fill="#52C8F5"/>
<path d="M34.5264 36.1599V35.0543H41.1597V36.1599H34.5264Z" fill="#52C8F5"/>
<path d="M36.7375 33.9657V31.7546H34.5264V30.6491H36.7375V28.438H38.9486V30.6491H41.1597V31.7546H38.9486V33.9657H36.7375Z" fill="#52C8F5"/>
<path d="M33.1448 39.3724H33.8251V40.0528H31.7842V39.3724H31.1038V38.6921H30.4235V38.0118H32.4645V38.6921H33.1448V39.3724ZM29.7432 38.6921H30.4235V39.3724H29.7432V38.6921ZM34.5055 38.6921V39.3724H33.8251V38.6921H34.5055Z" fill="#52C8F5"/>
<ellipse cx="1.91685" cy="3.69984" rx="1.91685" ry="3.69984" transform="matrix(0.517621 0.85561 -0.85583 0.517257 26.5156 12.4688)" fill="white"/>
</svg>