<svg width="200" height="200" viewBox="0 0 200 200" fill="none" xmlns="http://www.w3.org/2000/svg">
<g id="Frame 40">
<rect width="200" height="200" fill="black"/>
<g id="Union">
<path fill-rule="evenodd" clip-rule="evenodd" d="M65 40H40V59V79V98H65V149H40V169H160V149H135V98H160V79V59V40H135V59H120V40H80V59H65V40Z" fill="#AFE8C2"/>
<path d="M40 40V37.5C38.6193 37.5 37.5 38.6193 37.5 40H40ZM65 40H67.5C67.5 38.6193 66.3807 37.5 65 37.5V40ZM40 98H37.5C37.5 99.3807 38.6193 100.5 40 100.5V98ZM65 98H67.5C67.5 96.6193 66.3807 95.5 65 95.5V98ZM65 149V151.5C66.3807 151.5 67.5 150.381 67.5 149H65ZM40 149V146.5C38.6193 146.5 37.5 147.619 37.5 149H40ZM40 169H37.5C37.5 170.381 38.6193 171.5 40 171.5V169ZM160 169V171.5C161.381 171.5 162.5 170.381 162.5 169H160ZM160 149H162.5C162.5 147.619 161.381 146.5 160 146.5V149ZM135 149H132.5C132.5 150.381 133.619 151.5 135 151.5V149ZM135 98V95.5C133.619 95.5 132.5 96.6193 132.5 98H135ZM160 98V100.5C161.381 100.5 162.5 99.3807 162.5 98H160ZM160 40H162.5C162.5 38.6193 161.381 37.5 160 37.5V40ZM135 40V37.5C133.619 37.5 132.5 38.6193 132.5 40H135ZM135 59V61.5C136.381 61.5 137.5 60.3807 137.5 59H135ZM120 59H117.5C117.5 60.3807 118.619 61.5 120 61.5V59ZM120 40H122.5C122.5 38.6193 121.381 37.5 120 37.5V40ZM80 40V37.5C78.6193 37.5 77.5 38.6193 77.5 40H80ZM80 59V61.5C81.3807 61.5 82.5 60.3807 82.5 59H80ZM65 59H62.5C62.5 60.3807 63.6193 61.5 65 61.5V59ZM40 42.5H65V37.5H40V42.5ZM42.5 59V40H37.5V59H42.5ZM42.5 79V59H37.5V79H42.5ZM42.5 98V79H37.5V98H42.5ZM65 95.5H40V100.5H65V95.5ZM67.5 149V98H62.5V149H67.5ZM40 151.5H65V146.5H40V151.5ZM42.5 169V149H37.5V169H42.5ZM160 166.5H40V171.5H160V166.5ZM157.5 149V169H162.5V149H157.5ZM135 151.5H160V146.5H135V151.5ZM132.5 98V149H137.5V98H132.5ZM160 95.5H135V100.5H160V95.5ZM157.5 79V98H162.5V79H157.5ZM157.5 59V79H162.5V59H157.5ZM157.5 40V59H162.5V40H157.5ZM135 42.5H160V37.5H135V42.5ZM137.5 59V40H132.5V59H137.5ZM120 61.5H135V56.5H120V61.5ZM117.5 40V59H122.5V40H117.5ZM80 42.5H120V37.5H80V42.5ZM82.5 59V40H77.5V59H82.5ZM65 61.5H80V56.5H65V61.5ZM62.5 40V59H67.5V40H62.5Z" fill="#005E2C"/>
</g>
<rect id="Rectangle 16242" x="43" y="158" width="114" height="8" fill="#3DD771"/>
<path id="Rectangle 16244" d="M90 128C90 122.477 94.4772 118 100 118C105.523 118 110 122.477 110 128V149H90V128Z" fill="#005E2C"/>
<rect id="Rectangle 16251" x="43" y="43" width="8" height="50" fill="white"/>
<rect id="Rectangle 16252" x="83" y="43" width="8" height="20" fill="white"/>
<rect id="Rectangle 16253" x="138" y="43" width="8" height="20" fill="white"/>
</g>
</svg>
